<?xml version="1.0" encoding="UTF-8"?>
<!-- Generator: Adobe Illustrator 23.0.1, SVG Export Plug-In . SVG Version: 6.00 Build 0)  -->
<svg id="artwork" width="135" height="40" version="1.1" viewBox="0 0 135 40" xml:space="preserve" xmlns="http://www.w3.org/2000/svg" xmlns:cc="http://creativecommons.org/ns#" xmlns:dc="http://purl.org/dc/elements/1.1/" xmlns:rdf="http://www.w3.org/1999/02/22-rdf-syntax-ns#"><metadata><rdf:RDF><cc:Work rdf:about=""><dc:format>image/svg+xml</dc:format><dc:type rdf:resource="http://purl.org/dc/dcmitype/StillImage"/><dc:title/></cc:Work></rdf:RDF></metadata>
<style type="text/css">
	.st0{fill:#FFFFFF;fill-opacity:0;}
	.st1{fill:#A6A6A6;}
	.st2{fill:#FFFFFF;stroke:#FFFFFF;stroke-width:0.2;stroke-miterlimit:10;}
	.st3{fill:#FFFFFF;}
	.st4{fill:url(#SVGID_1_);}
	.st5{fill:url(#SVGID_2_);}
	.st6{fill:url(#SVGID_3_);}
	.st7{fill:url(#SVGID_4_);}
	.st8{opacity:0.2;enable-background:new    ;}
	.st9{opacity:0.12;enable-background:new    ;}
	.st10{opacity:0.25;fill:#FFFFFF;enable-background:new    ;}
</style>
<g transform="translate(-10,-10)">
	<rect class="st0" width="155" height="60" fill-opacity="0"/>
		<path d="m140 50h-125c-2.75 0-5-2.25-5-5v-30c0-2.75 2.25-5 5-5h125c2.75 0 5 2.25 5 5v30c0 2.75-2.25 5-5 5z"/>
			<path class="st1" d="m140 10.8c2.32 0 4.2 1.88 4.2 4.2v30c0 2.32-1.88 4.2-4.2 4.2h-125c-2.32 0-4.2-1.88-4.2-4.2v-30c0-2.32 1.88-4.2 4.2-4.2h125m0-0.8h-125c-2.75 0-5 2.25-5 5v30c0 2.75 2.25 5 5 5h125c2.75 0 5-2.25 5-5v-30c0-2.75-2.25-5-5-5z" fill="#a6a6a6"/>
	<g fill="#fff" stroke="#fff" stroke-miterlimit="10" stroke-width=".2">
		<path class="st2" d="m57.42 20.24c0 0.84-0.25 1.51-0.75 2-0.56 0.59-1.3 0.89-2.2 0.89-0.87 0-1.6-0.3-2.21-0.9s-0.91-1.35-0.91-2.23c0-0.89 0.3-1.63 0.91-2.23s1.34-0.9 2.21-0.9c0.43 0 0.84 0.08 1.23 0.25s0.7 0.39 0.94 0.67l-0.53 0.53c-0.4-0.47-0.94-0.71-1.64-0.71-0.63 0-1.18 0.22-1.64 0.67-0.46 0.44-0.69 1.02-0.69 1.73s0.23 1.29 0.69 1.73 1.01 0.67 1.64 0.67c0.67 0 1.23-0.22 1.68-0.67 0.29-0.29 0.46-0.7 0.5-1.22h-2.18v-0.72h2.91c0.02 0.15 0.04 0.3 0.04 0.44z"/>
		<path class="st2" d="m62.03 17.74h-2.73v1.9h2.46v0.72h-2.46v1.9h2.73v0.74h-3.5v-6h3.5z"/>
		<path class="st2" d="m65.28 23h-0.77v-5.26h-1.68v-0.74h4.12v0.74h-1.68v5.26z"/>
		<path class="st2" d="m69.94 23v-6h0.77v6z"/>
		<path class="st2" d="m74.13 23h-0.77v-5.26h-1.68v-0.74h4.12v0.74h-1.68v5.26z"/>
		<path class="st2" d="m83.61 22.22c-0.59 0.61-1.32 0.91-2.2 0.91s-1.61-0.3-2.2-0.91-0.88-1.35-0.88-2.22 0.29-1.62 0.88-2.22c0.59-0.61 1.32-0.91 2.2-0.91 0.87 0 1.6 0.3 2.2 0.91 0.59 0.61 0.89 1.35 0.89 2.22-0.01 0.88-0.3 1.62-0.89 2.22zm-3.83-0.5c0.44 0.45 0.99 0.67 1.63 0.67s1.19-0.22 1.63-0.67 0.67-1.02 0.67-1.72-0.22-1.27-0.67-1.72c-0.44-0.45-0.99-0.67-1.63-0.67s-1.19 0.22-1.63 0.67-0.67 1.02-0.67 1.72 0.23 1.27 0.67 1.72z"/>
		<path class="st2" d="m85.58 23v-6h0.94l2.92 4.67h0.03l-0.03-1.16v-3.51h0.77v6h-0.8l-3.05-4.89h-0.03l0.03 1.16v3.73z"/>
	</g>
	<path class="st3" d="m78.14 31.75c-2.35 0-4.27 1.79-4.27 4.25 0 2.45 1.92 4.25 4.27 4.25s4.27-1.8 4.27-4.25c0-2.46-1.92-4.25-4.27-4.25zm0 6.83c-1.29 0-2.4-1.06-2.4-2.58 0-1.53 1.11-2.58 2.4-2.58s2.4 1.05 2.4 2.58c0 1.52-1.12 2.58-2.4 2.58zm-9.32-6.83c-2.35 0-4.27 1.79-4.27 4.25 0 2.45 1.92 4.25 4.27 4.25s4.27-1.8 4.27-4.25c0-2.46-1.92-4.25-4.27-4.25zm0 6.83c-1.29 0-2.4-1.06-2.4-2.58 0-1.53 1.11-2.58 2.4-2.58s2.4 1.05 2.4 2.58c0 1.52-1.11 2.58-2.4 2.58zm-11.08-5.52v1.8h4.32c-0.13 1.01-0.47 1.76-0.98 2.27-0.63 0.63-1.61 1.32-3.33 1.32-2.66 0-4.74-2.14-4.74-4.8s2.08-4.8 4.74-4.8c1.43 0 2.48 0.56 3.25 1.29l1.27-1.27c-1.08-1.03-2.51-1.82-4.53-1.82-3.64 0-6.7 2.96-6.7 6.61 0 3.64 3.06 6.61 6.7 6.61 1.97 0 3.45-0.64 4.61-1.85 1.19-1.19 1.56-2.87 1.56-4.22 0-0.42-0.03-0.81-0.1-1.13h-6.07zm45.31 1.4c-0.35-0.95-1.43-2.71-3.64-2.71-2.19 0-4.01 1.72-4.01 4.25 0 2.38 1.8 4.25 4.22 4.25 1.95 0 3.08-1.19 3.54-1.88l-1.45-0.97c-0.48 0.71-1.14 1.18-2.09 1.18s-1.63-0.44-2.06-1.29l5.69-2.35zm-5.8 1.42c-0.05-1.64 1.27-2.48 2.22-2.48 0.74 0 1.37 0.37 1.58 0.9zm-4.62 4.12h1.87v-12.5h-1.87zm-3.06-7.3h-0.07c-0.42-0.5-1.22-0.95-2.24-0.95-2.13 0-4.08 1.87-4.08 4.27 0 2.38 1.95 4.24 4.08 4.24 1.01 0 1.82-0.45 2.24-0.97h0.06v0.61c0 1.63-0.87 2.5-2.27 2.5-1.14 0-1.85-0.82-2.14-1.51l-1.63 0.68c0.47 1.13 1.71 2.51 3.77 2.51 2.19 0 4.04-1.29 4.04-4.43v-7.64h-1.77v0.69zm-2.15 5.88c-1.29 0-2.37-1.08-2.37-2.56 0-1.5 1.08-2.59 2.37-2.59 1.27 0 2.27 1.1 2.27 2.59 0.01 1.48-0.99 2.56-2.27 2.56zm24.39-11.08h-4.47v12.5h1.87v-4.74h2.61c2.07 0 4.1-1.5 4.1-3.88s-2.05-3.88-4.11-3.88zm0.04 6.02h-2.65v-4.29h2.65c1.4 0 2.19 1.16 2.19 2.14s-0.79 2.15-2.19 2.15zm11.54-1.79c-1.35 0-2.75 0.6-3.33 1.91l1.66 0.69c0.35-0.69 1.01-0.92 1.7-0.92 0.96 0 1.95 0.58 1.96 1.61v0.13c-0.34-0.19-1.06-0.48-1.95-0.48-1.79 0-3.6 0.98-3.6 2.81 0 1.67 1.46 2.75 3.1 2.75 1.25 0 1.95-0.56 2.38-1.22h0.06v0.97h1.8v-4.79c0.01-2.22-1.65-3.46-3.78-3.46zm-0.23 6.85c-0.61 0-1.46-0.31-1.46-1.06 0-0.96 1.06-1.33 1.98-1.33 0.82 0 1.21 0.18 1.7 0.42-0.14 1.15-1.14 1.97-2.22 1.97zm10.58-6.58-2.14 5.42h-0.06l-2.22-5.42h-2.01l3.33 7.58-1.9 4.21h1.95l5.13-11.79zm-16.8 8h1.87v-12.5h-1.87z" fill="#fff"/>
			<linearGradient id="SVGID_1_" x1="31.8" x2="15.017" y1="183.29" y2="166.51" gradientTransform="matrix(1,0,0,-1,0,202)" gradientUnits="userSpaceOnUse">
			<stop stop-color="#00A0FF" offset="0"/>
			<stop stop-color="#00A1FF" offset=".0065744"/>
			<stop stop-color="#00BEFF" offset=".2601"/>
			<stop stop-color="#00D2FF" offset=".5122"/>
			<stop stop-color="#00DFFF" offset=".7604"/>
			<stop stop-color="#00E3FF" offset="1"/>
		</linearGradient>
		<path class="st4" d="m20.44 17.54c-0.29 0.31-0.46 0.79-0.46 1.4v22.12c0 0.62 0.17 1.1 0.46 1.4l0.07 0.07 12.39-12.38v-0.3l-12.39-12.38z" fill="url(#SVGID_1_)"/>
			<linearGradient id="SVGID_2_" x1="43.834" x2="19.638" y1="172" y2="172" gradientTransform="matrix(1,0,0,-1,0,202)" gradientUnits="userSpaceOnUse">
			<stop stop-color="#FFE000" offset="0"/>
			<stop stop-color="#FFBD00" offset=".4087"/>
			<stop stop-color="#FFA500" offset=".7754"/>
			<stop stop-color="#FF9C00" offset="1"/>
		</linearGradient>
		<path class="st5" d="m37.03 34.28-4.13-4.13v-0.3l4.13-4.13 0.09 0.05 4.89 2.78c1.4 0.79 1.4 2.09 0 2.89l-4.89 2.78z" fill="url(#SVGID_2_)"/>
			<linearGradient id="SVGID_3_" x1="34.827" x2="12.069" y1="169.7" y2="146.95" gradientTransform="matrix(1,0,0,-1,0,202)" gradientUnits="userSpaceOnUse">
			<stop stop-color="#FF3A44" offset="0"/>
			<stop stop-color="#C31162" offset="1"/>
		</linearGradient>
		<path class="st6" d="m37.12 34.22-4.22-4.22-12.46 12.46c0.46 0.49 1.22 0.55 2.08 0.06l14.6-8.3" fill="url(#SVGID_3_)"/>
			<linearGradient id="SVGID_4_" x1="17.297" x2="27.46" y1="191.82" y2="181.66" gradientTransform="matrix(1,0,0,-1,0,202)" gradientUnits="userSpaceOnUse">
			<stop stop-color="#32A071" offset="0"/>
			<stop stop-color="#2DA771" offset=".0685"/>
			<stop stop-color="#15CF74" offset=".4762"/>
			<stop stop-color="#06E775" offset=".8009"/>
			<stop stop-color="#00F076" offset="1"/>
		</linearGradient>
		<path class="st7" d="m37.12 25.78-14.61-8.3c-0.86-0.49-1.62-0.43-2.08 0.06l12.47 12.46z" fill="url(#SVGID_4_)"/>
			<path class="st8" d="m37.03 34.13-14.52 8.25c-0.81 0.46-1.54 0.43-2 0.01l-0.07 0.07 0.07 0.07c0.47 0.42 1.19 0.45 2-0.01l14.61-8.3z" enable-background="new" opacity=".2"/>
			<path class="st9" d="m20.44 42.32c-0.29-0.31-0.46-0.79-0.46-1.4v0.15c0 0.62 0.17 1.1 0.46 1.4l0.07-0.07z" enable-background="new" opacity=".12"/>
		<path class="st9" d="m42.01 31.3-4.99 2.83 0.09 0.09 4.89-2.78c0.7-0.4 1.05-0.92 1.05-1.44-0.05 0.47-0.4 0.94-1.04 1.3z" enable-background="new" opacity=".12"/>
		<path class="st10" d="m22.51 17.62 19.5 11.08c0.63 0.36 0.99 0.82 1.05 1.3 0-0.52-0.35-1.05-1.05-1.44l-19.5-11.08c-1.4-0.79-2.54-0.13-2.54 1.47v0.15c0-1.61 1.15-2.27 2.54-1.48z" enable-background="new" fill="#fff" opacity=".25"/>
</g>
</svg>
