<svg width="158.56" height="512" version="1.1" viewBox="0 0 158.56 512" xml:space="preserve" xmlns="http://www.w3.org/2000/svg">
<g transform="translate(-176.72)">
		<path d="m326.73 402.33h-6.46v-25.768c0-4.721-3.826-8.548-8.548-8.548h-17.001l-8.073-10.993c-1.855-2.527-2.446-5.5-1.663-8.371l9.956-36.487c2.779-10.188 3.072-21.018 0.848-31.318l-4.304-19.92 2.455-4.079c7.847-13.041 11.489-27.782 10.531-42.631l-2.771-43.027 4.888-0.8c3.793-0.62 6.706-3.696 7.119-7.518l6.934-64.197c1.031-9.556-4.543-18.642-13.874-22.609l-17.608-7.485c-4.007-1.703-6.134-5.368-5.173-8.914l5.343-19.716c2.627-9.695 0.268-20.016-6.31-27.609-6.794-7.842-16.642-12.341-27.019-12.341s-20.227 4.499-27.021 12.341c-6.577 7.592-8.937 17.912-6.31 27.608l5.342 19.717c0.961 3.546-1.166 7.211-5.173 8.914l-17.608 7.485c-9.33 3.966-14.904 13.052-13.873 22.609l6.933 64.197c0.413 3.822 3.326 6.898 7.119 7.518l4.888 0.8-2.771 43.028c-0.956 14.85 2.685 29.591 10.532 42.631l2.454 4.078-4.302 19.92c-2.225 10.302-1.932 21.132 0.848 31.319l9.954 36.487c0.784 2.871 0.194 5.843-1.663 8.37l-8.073 10.993h-17c-4.722 0-8.548 3.827-8.548 8.548v25.768h-6.46c-4.722 0-8.548 3.827-8.548 8.548v92.573c0 4.721 3.826 8.548 8.548 8.548h141.46c4.722 0 8.548-3.827 8.548-8.548v-92.573c1e-3 -4.721-3.826-8.548-8.547-8.548zm-112.14-247.76-6.231-57.733c-0.221-2.047 1.177-4.026 3.564-5.04l17.608-7.485c11.886-5.054 18.188-17.299 14.985-29.118l-5.342-19.717c-1.136-4.194-0.117-8.659 2.729-11.942 3.546-4.093 8.685-6.44 14.1-6.44 5.416 0 10.556 2.348 14.101 6.44 2.846 3.285 3.866 7.749 2.73 11.943l-5.343 19.717c-3.203 11.82 3.1 24.066 14.986 29.119l17.608 7.485c2.35 1 3.782 3.025 3.564 5.04l-6.235 57.73-23.244-18.734c-10.357-9.329-25.978-9.329-36.335 0zm10 60.742 3.045-47.286 21.641-19.492c3.834-3.453 9.618-3.452 13.451 0l21.641 19.491 3.045 47.288c0.732 11.359-2.075 22.673-8.119 32.717l-4.201 6.981c-1.121 1.865-1.492 4.086-1.031 6.213l5.018 23.23c1.672 7.739 1.459 15.548-0.63 23.208l-9.956 36.487c-2.154 7.893-0.557 16.272 4.377 22.991l0.641 0.873h-8.962v-201.71c0-4.721-3.826-8.548-8.548-8.548s-8.548 3.827-8.548 8.548v201.71h-8.963l0.641-0.873c4.937-6.72 6.533-15.1 4.378-22.991l-9.954-36.487c-2.09-7.659-2.302-15.467-0.63-23.208l5.017-23.23c0.459-2.127 0.09-4.348-1.031-6.213l-4.2-6.98c-6.045-10.044-8.854-21.358-8.122-32.719zm-15.76 169.8h94.348v17.22h-94.348zm109.36 109.79h-124.36v-75.477h124.36v75.477z"/>
</g>
</svg>
